<?xml version="1.0" standalone="no"?>
<!DOCTYPE svg PUBLIC "-//W3C//DTD SVG 20010904//EN"
 "http://www.w3.org/TR/2001/REC-SVG-20010904/DTD/svg10.dtd">
<svg version="1.0" xmlns="http://www.w3.org/2000/svg"
 width="1024.000000pt" height="1024.000000pt" viewBox="0 0 1024.000000 1024.000000"
 preserveAspectRatio="xMidYMid meet">
<metadata>
Created by potrace 1.11, written by Peter Selinger 2001-2013
</metadata>
<g transform="translate(0.000000,1024.000000) scale(0.100000,-0.100000)"
fill="#000000" stroke="none">
<path d="M5630 9346 c-209 -45 -425 -171 -599 -351 -225 -233 -351 -521 -351
-804 0 -262 86 -383 419 -588 23 -15 21 -17 -95 -77 -66 -34 -179 -100 -253
-146 l-134 -83 6 -91 c4 -50 12 -198 18 -328 l12 -236 148 74 c524 262 943
419 1590 594 l116 32 28 349 c15 192 25 352 22 355 -2 3 -74 -8 -158 -25 -410
-79 -693 -74 -922 18 -75 29 -179 92 -240 143 l-28 23 58 94 c105 171 245 295
385 340 56 18 169 16 207 -3 40 -21 70 -84 71 -146 l0 -45 133 -31 c119 -28
133 -29 143 -15 25 36 84 201 100 281 59 293 -89 571 -345 651 -86 26 -243 33
-331 15z"/>
<path d="M6175 6062 c-228 -126 -443 -290 -631 -483 -243 -250 -364 -476 -364
-681 0 -210 80 -397 470 -1103 158 -285 375 -710 403 -786 4 -14 -13 -24 -89
-53 -348 -133 -966 -245 -1579 -286 -92 -6 -975 -10 -2267 -10 l-2118 0 0
-710 0 -711 2133 4 c1939 3 2145 4 2277 20 439 52 809 143 1195 294 154 60
450 203 590 285 88 52 91 55 132 133 108 205 273 613 337 834 79 272 104 458
86 652 -25 273 -99 710 -230 1349 -45 217 -121 597 -169 843 -49 246 -90 449
-92 451 -2 1 -40 -17 -84 -42z"/>
</g>
</svg>
